<?xml version="1.0" standalone="no"?>
 <!DOCTYPE svg PUBLIC "-//W3C//DTD SVG 1.1//EN" 
 "http://www.w3.org/Graphics/SVG/1.1/DTD/svg11.dtd"> 
<svg
  xmlns:svg="http://www.w3.org/2000/svg"
  xmlns="http://www.w3.org/2000/svg"
  xmlns:xlink="http://www.w3.org/1999/xlink"
  version="1.1"
  width="29.700220cm" height="21.000720cm" viewBox="0 0 116930 82680">
<title>SVG Picture created as single_phase_full_wave_rectifier.svg date 2020/05/16 16:58:39 </title>
  <desc>Picture generated by Eeschema-SVG </desc>
<g style="fill:#000000; fill-opacity:1;stroke:#000000; stroke-opacity:1;
stroke-linecap:round; stroke-linejoin:round;"
 transform="translate(0 0) scale(1 1)">
</g>
<g style="fill:#000000; fill-opacity:0.0; 
stroke:#000000; stroke-width:0; stroke-opacity:1; 
stroke-linecap:round; stroke-linejoin:round;">
<g >
</g>
<g style="fill:#840000; fill-opacity:0.0; 
stroke:#840000; stroke-width:0; stroke-opacity:1; 
stroke-linecap:round; stroke-linejoin:round;">
</g>
<g style="fill:#840000; fill-opacity:0.0; 
stroke:#840000; stroke-width:60; stroke-opacity:1; 
stroke-linecap:round; stroke-linejoin:round;">
<path d="M31000.4 25500 A250 250 0.0 0 0 31000.4 25000" />
<path d="M31000.4 25000 A250 250 0.0 0 0 31000.4 24500" />
<path d="M31000.4 24500 A250 250 0.0 0 0 31000.4 24000" />
<path d="M31000.4 24000 A250 250 0.0 0 0 31000.4 23500" />
<path d="M31000 23500
L31000 23000
" />
<path d="M31000 25500
L31000 26000
" />
</g>
<g style="fill:#008484; fill-opacity:0.0; 
stroke:#008484; stroke-width:60; stroke-opacity:1; 
stroke-linecap:round; stroke-linejoin:round;">
<text x="31750" y="24770"
textLength="460" font-size="660" lengthAdjust="spacingAndGlyphs"
text-anchor="middle" opacity="0">L</text>
<path d="M31900 24740
L31660 24740
L31660 24240
" />
</g>
</g>
<g style="fill:#008484; fill-opacity:0.0; 
stroke:#008484; stroke-width:0; stroke-opacity:1; 
stroke-linecap:round; stroke-linejoin:round;">
<g >
</g>
<g style="fill:#840000; fill-opacity:0.0; 
stroke:#840000; stroke-width:0; stroke-opacity:1; 
stroke-linecap:round; stroke-linejoin:round;">
</g>
<g style="fill:#840000; fill-opacity:0.0; 
stroke:#840000; stroke-width:60; stroke-opacity:1; 
stroke-linecap:round; stroke-linejoin:round;">
<path d="M33499.6 23500 A250 250 0.0 0 0 33499.6 24000" />
<path d="M33499.6 24000 A250 250 0.0 0 0 33499.6 24500" />
<path d="M33499.6 24500 A250 250 0.0 0 0 33499.6 25000" />
<path d="M33499.6 25000 A250 250 0.0 0 0 33499.6 25500" />
<path d="M33500 25500
L33500 26000
" />
<path d="M33500 23500
L33500 23000
" />
</g>
<g style="fill:#008484; fill-opacity:0.0; 
stroke:#008484; stroke-width:60; stroke-opacity:1; 
stroke-linecap:round; stroke-linejoin:round;">
<text x="34160" y="24720"
textLength="460" font-size="660" lengthAdjust="spacingAndGlyphs"
text-anchor="middle" opacity="0">L</text>
<path d="M34310 24690
L34070 24690
L34070 24190
" />
</g>
</g>
<g style="fill:#008484; fill-opacity:0.0; 
stroke:#008484; stroke-width:0; stroke-opacity:1; 
stroke-linecap:round; stroke-linejoin:round;">
<g >
</g>
<g style="fill:#840000; fill-opacity:0.0; 
stroke:#840000; stroke-width:0; stroke-opacity:1; 
stroke-linecap:round; stroke-linejoin:round;">
</g>
<g style="fill:#FFFFC2; fill-opacity:0.0; 
stroke:#FFFFC2; stroke-width:0; stroke-opacity:1; 
stroke-linecap:round; stroke-linejoin:round;">
</g>
<g style="fill:#FFFFC2; fill-opacity:0.6; 
stroke:#FFFFC2; stroke-width:0; stroke-opacity:1; 
stroke-linecap:round; stroke-linejoin:round;">
<circle cx="28500" cy="24500" r="1000" /> 
</g>
<g style="fill:#840000; fill-opacity:0.6; 
stroke:#840000; stroke-width:0; stroke-opacity:1; 
stroke-linecap:round; stroke-linejoin:round;">
</g>
<g style="fill:#840000; fill-opacity:0.0; 
stroke:#840000; stroke-width:100; stroke-opacity:1; 
stroke-linecap:round; stroke-linejoin:round;">
<circle cx="28500" cy="24500" r="1000" /> 
</g>
<g style="fill:#840000; fill-opacity:0.0; 
stroke:#840000; stroke-width:60; stroke-opacity:1; 
stroke-linecap:round; stroke-linejoin:round;">
<path d="M28500 24499.6 A250 250 0.0 0 0 28000 24500" />
<path d="M28500 24500 A250 250 0.0 0 0 29000 24500.4" />
</g>
<g style="fill:#840000; fill-opacity:0.0; 
stroke:#840000; stroke-width:100; stroke-opacity:1; 
stroke-linecap:round; stroke-linejoin:round;">
<circle cx="28500" cy="24500" r="1000" /> 
</g>
<g style="fill:#840000; fill-opacity:0.0; 
stroke:#840000; stroke-width:60; stroke-opacity:1; 
stroke-linecap:round; stroke-linejoin:round;">
<text x="28500" y="24020"
textLength="680" font-size="660" lengthAdjust="spacingAndGlyphs"
text-anchor="middle" opacity="0">+</text>
<path d="M28300 23800
L28690 23800
" />
<path d="M28500 23990
L28500 23610
" />
<path d="M28500 23500
L28500 22500
" />
<path d="M28500 25500
L28500 26500
" />
</g>
<g style="fill:#008484; fill-opacity:0.0; 
stroke:#008484; stroke-width:60; stroke-opacity:1; 
stroke-linecap:round; stroke-linejoin:round;">
<text x="26720" y="24770"
textLength="440" font-size="660" lengthAdjust="spacingAndGlyphs"
text-anchor="middle" opacity="0">v</text>
<path d="M26600 24410
L26720 24740
L26830 24410
" />
</g>
</g>
<g style="fill:#008484; fill-opacity:0.0; 
stroke:#008484; stroke-width:0; stroke-opacity:1; 
stroke-linecap:round; stroke-linejoin:round;">
<g >
</g>
<g style="fill:#840000; fill-opacity:0.0; 
stroke:#840000; stroke-width:0; stroke-opacity:1; 
stroke-linecap:round; stroke-linejoin:round;">
</g>
<g style="fill:#840000; fill-opacity:0.0; 
stroke:#840000; stroke-width:100; stroke-opacity:1; 
stroke-linecap:round; stroke-linejoin:round;">
<path style="fill:#840000; fill-opacity:0.0; 
stroke:#840000; stroke-width:100; stroke-opacity:1; 
stroke-linecap:round; stroke-linejoin:round;fill:none"
d="M 42000,19500
41000,19500
" /> 
</g>
<g style="fill:#840000; fill-opacity:0.0; 
stroke:#840000; stroke-width:60; stroke-opacity:1; 
stroke-linecap:round; stroke-linejoin:round;">
<path style="fill:#840000; fill-opacity:0.0; 
stroke:#840000; stroke-width:60; stroke-opacity:1; 
stroke-linecap:round; stroke-linejoin:round;fill:none"
d="M 41500,20500
41500,19500
" /> 
</g>
<g style="fill:#840000; fill-opacity:0.0; 
stroke:#840000; stroke-width:100; stroke-opacity:1; 
stroke-linecap:round; stroke-linejoin:round;">
<path style="fill:#840000; fill-opacity:0.0; 
stroke:#840000; stroke-width:100; stroke-opacity:1; 
stroke-linecap:round; stroke-linejoin:round;fill:none"
d="M 42000,20500
41000,20500
41500,19500
Z" /> 
</g>
<g style="fill:#840000; fill-opacity:0.0; 
stroke:#840000; stroke-width:60; stroke-opacity:1; 
stroke-linecap:round; stroke-linejoin:round;">
<path d="M41500 19500
L41500 18500
" />
<path d="M41500 20500
L41500 21500
" />
</g>
<g style="fill:#008484; fill-opacity:0.0; 
stroke:#008484; stroke-width:60; stroke-opacity:1; 
stroke-linecap:round; stroke-linejoin:round;">
<text x="42820" y="19810"
textLength="1040" font-size="660" lengthAdjust="spacingAndGlyphs"
text-anchor="middle" opacity="0">D2</text>
<path d="M42450 19780
L42450 19280
L42570 19280
L42640 19310
L42680 19350
L42710 19400
L42730 19500
L42730 19570
L42710 19660
L42680 19710
L42640 19760
L42570 19780
L42450 19780
" />
<path d="M42920 19330
L42950 19310
L42990 19280
L43110 19280
L43160 19310
L43180 19330
L43210 19380
L43210 19420
L43180 19500
L42900 19780
L43210 19780
" />
<text x="42580" y="20720"
textLength="560" font-size="660" lengthAdjust="spacingAndGlyphs"
text-anchor="middle" opacity="0">D</text>
<path d="M42440 20690
L42440 20190
L42560 20190
L42630 20220
L42680 20260
L42710 20310
L42730 20410
L42730 20480
L42710 20570
L42680 20620
L42630 20670
L42560 20690
L42440 20690
" />
</g>
</g>
<g style="fill:#008484; fill-opacity:0.0; 
stroke:#008484; stroke-width:0; stroke-opacity:1; 
stroke-linecap:round; stroke-linejoin:round;">
<g >
</g>
<g style="fill:#840000; fill-opacity:0.0; 
stroke:#840000; stroke-width:0; stroke-opacity:1; 
stroke-linecap:round; stroke-linejoin:round;">
</g>
<g style="fill:#840000; fill-opacity:0.0; 
stroke:#840000; stroke-width:100; stroke-opacity:1; 
stroke-linecap:round; stroke-linejoin:round;">
<path style="fill:#840000; fill-opacity:0.0; 
stroke:#840000; stroke-width:100; stroke-opacity:1; 
stroke-linecap:round; stroke-linejoin:round;fill:none"
d="M 36500,28500
35500,28500
" /> 
</g>
<g style="fill:#840000; fill-opacity:0.0; 
stroke:#840000; stroke-width:60; stroke-opacity:1; 
stroke-linecap:round; stroke-linejoin:round;">
<path style="fill:#840000; fill-opacity:0.0; 
stroke:#840000; stroke-width:60; stroke-opacity:1; 
stroke-linecap:round; stroke-linejoin:round;fill:none"
d="M 36000,29500
36000,28500
" /> 
</g>
<g style="fill:#840000; fill-opacity:0.0; 
stroke:#840000; stroke-width:100; stroke-opacity:1; 
stroke-linecap:round; stroke-linejoin:round;">
<path style="fill:#840000; fill-opacity:0.0; 
stroke:#840000; stroke-width:100; stroke-opacity:1; 
stroke-linecap:round; stroke-linejoin:round;fill:none"
d="M 36500,29500
35500,29500
36000,28500
Z" /> 
</g>
<g style="fill:#840000; fill-opacity:0.0; 
stroke:#840000; stroke-width:60; stroke-opacity:1; 
stroke-linecap:round; stroke-linejoin:round;">
<path d="M36000 28500
L36000 27500
" />
<path d="M36000 29500
L36000 30500
" />
</g>
<g style="fill:#008484; fill-opacity:0.0; 
stroke:#008484; stroke-width:60; stroke-opacity:1; 
stroke-linecap:round; stroke-linejoin:round;">
<text x="37320" y="28810"
textLength="1040" font-size="660" lengthAdjust="spacingAndGlyphs"
text-anchor="middle" opacity="0">D3</text>
<path d="M36950 28780
L36950 28280
L37070 28280
L37140 28310
L37180 28350
L37210 28400
L37230 28500
L37230 28570
L37210 28660
L37180 28710
L37140 28760
L37070 28780
L36950 28780
" />
<path d="M37400 28280
L37710 28280
L37540 28470
L37610 28470
L37660 28500
L37680 28520
L37710 28570
L37710 28690
L37680 28730
L37660 28760
L37610 28780
L37470 28780
L37420 28760
L37400 28730
" />
<text x="37080" y="29720"
textLength="560" font-size="660" lengthAdjust="spacingAndGlyphs"
text-anchor="middle" opacity="0">D</text>
<path d="M36940 29690
L36940 29190
L37060 29190
L37130 29220
L37180 29260
L37210 29310
L37230 29410
L37230 29480
L37210 29570
L37180 29620
L37130 29670
L37060 29690
L36940 29690
" />
</g>
</g>
<g style="fill:#008484; fill-opacity:0.0; 
stroke:#008484; stroke-width:0; stroke-opacity:1; 
stroke-linecap:round; stroke-linejoin:round;">
<g >
</g>
<g style="fill:#840000; fill-opacity:0.0; 
stroke:#840000; stroke-width:0; stroke-opacity:1; 
stroke-linecap:round; stroke-linejoin:round;">
</g>
<g style="fill:#840000; fill-opacity:0.0; 
stroke:#840000; stroke-width:100; stroke-opacity:1; 
stroke-linecap:round; stroke-linejoin:round;">
<path style="fill:#840000; fill-opacity:0.0; 
stroke:#840000; stroke-width:100; stroke-opacity:1; 
stroke-linecap:round; stroke-linejoin:round;fill:none"
d="M 36500,19500
35500,19500
" /> 
</g>
<g style="fill:#840000; fill-opacity:0.0; 
stroke:#840000; stroke-width:60; stroke-opacity:1; 
stroke-linecap:round; stroke-linejoin:round;">
<path style="fill:#840000; fill-opacity:0.0; 
stroke:#840000; stroke-width:60; stroke-opacity:1; 
stroke-linecap:round; stroke-linejoin:round;fill:none"
d="M 36000,20500
36000,19500
" /> 
</g>
<g style="fill:#840000; fill-opacity:0.0; 
stroke:#840000; stroke-width:100; stroke-opacity:1; 
stroke-linecap:round; stroke-linejoin:round;">
<path style="fill:#840000; fill-opacity:0.0; 
stroke:#840000; stroke-width:100; stroke-opacity:1; 
stroke-linecap:round; stroke-linejoin:round;fill:none"
d="M 36500,20500
35500,20500
36000,19500
Z" /> 
</g>
<g style="fill:#840000; fill-opacity:0.0; 
stroke:#840000; stroke-width:60; stroke-opacity:1; 
stroke-linecap:round; stroke-linejoin:round;">
<path d="M36000 19500
L36000 18500
" />
<path d="M36000 20500
L36000 21500
" />
</g>
<g style="fill:#008484; fill-opacity:0.0; 
stroke:#008484; stroke-width:60; stroke-opacity:1; 
stroke-linecap:round; stroke-linejoin:round;">
<text x="37320" y="19810"
textLength="1040" font-size="660" lengthAdjust="spacingAndGlyphs"
text-anchor="middle" opacity="0">D1</text>
<path d="M36950 19780
L36950 19280
L37070 19280
L37140 19310
L37180 19350
L37210 19400
L37230 19500
L37230 19570
L37210 19660
L37180 19710
L37140 19760
L37070 19780
L36950 19780
" />
<path d="M37710 19780
L37420 19780
" />
<path d="M37570 19780
L37570 19280
L37520 19350
L37470 19400
L37420 19420
" />
<text x="37080" y="20720"
textLength="560" font-size="660" lengthAdjust="spacingAndGlyphs"
text-anchor="middle" opacity="0">D</text>
<path d="M36940 20690
L36940 20190
L37060 20190
L37130 20220
L37180 20260
L37210 20310
L37230 20410
L37230 20480
L37210 20570
L37180 20620
L37130 20670
L37060 20690
L36940 20690
" />
</g>
</g>
<g style="fill:#008484; fill-opacity:0.0; 
stroke:#008484; stroke-width:0; stroke-opacity:1; 
stroke-linecap:round; stroke-linejoin:round;">
<g >
</g>
<g style="fill:#840000; fill-opacity:0.0; 
stroke:#840000; stroke-width:0; stroke-opacity:1; 
stroke-linecap:round; stroke-linejoin:round;">
</g>
<g style="fill:#840000; fill-opacity:0.0; 
stroke:#840000; stroke-width:100; stroke-opacity:1; 
stroke-linecap:round; stroke-linejoin:round;">
<path style="fill:#840000; fill-opacity:0.0; 
stroke:#840000; stroke-width:100; stroke-opacity:1; 
stroke-linecap:round; stroke-linejoin:round;fill:none"
d="M 42000,28500
41000,28500
" /> 
</g>
<g style="fill:#840000; fill-opacity:0.0; 
stroke:#840000; stroke-width:60; stroke-opacity:1; 
stroke-linecap:round; stroke-linejoin:round;">
<path style="fill:#840000; fill-opacity:0.0; 
stroke:#840000; stroke-width:60; stroke-opacity:1; 
stroke-linecap:round; stroke-linejoin:round;fill:none"
d="M 41500,29500
41500,28500
" /> 
</g>
<g style="fill:#840000; fill-opacity:0.0; 
stroke:#840000; stroke-width:100; stroke-opacity:1; 
stroke-linecap:round; stroke-linejoin:round;">
<path style="fill:#840000; fill-opacity:0.0; 
stroke:#840000; stroke-width:100; stroke-opacity:1; 
stroke-linecap:round; stroke-linejoin:round;fill:none"
d="M 42000,29500
41000,29500
41500,28500
Z" /> 
</g>
<g style="fill:#840000; fill-opacity:0.0; 
stroke:#840000; stroke-width:60; stroke-opacity:1; 
stroke-linecap:round; stroke-linejoin:round;">
<path d="M41500 28500
L41500 27500
" />
<path d="M41500 29500
L41500 30500
" />
</g>
<g style="fill:#008484; fill-opacity:0.0; 
stroke:#008484; stroke-width:60; stroke-opacity:1; 
stroke-linecap:round; stroke-linejoin:round;">
<text x="42820" y="28810"
textLength="1040" font-size="660" lengthAdjust="spacingAndGlyphs"
text-anchor="middle" opacity="0">D4</text>
<path d="M42450 28780
L42450 28280
L42570 28280
L42640 28310
L42680 28350
L42710 28400
L42730 28500
L42730 28570
L42710 28660
L42680 28710
L42640 28760
L42570 28780
L42450 28780
" />
<path d="M43160 28450
L43160 28780
" />
<path d="M43040 28260
L42920 28610
L43230 28610
" />
<text x="42580" y="29720"
textLength="560" font-size="660" lengthAdjust="spacingAndGlyphs"
text-anchor="middle" opacity="0">D</text>
<path d="M42440 29690
L42440 29190
L42560 29190
L42630 29220
L42680 29260
L42710 29310
L42730 29410
L42730 29480
L42710 29570
L42680 29620
L42630 29670
L42560 29690
L42440 29690
" />
</g>
</g>
<g style="fill:#008484; fill-opacity:0.0; 
stroke:#008484; stroke-width:0; stroke-opacity:1; 
stroke-linecap:round; stroke-linejoin:round;">
<g >
</g>
<g style="fill:#840000; fill-opacity:0.0; 
stroke:#840000; stroke-width:0; stroke-opacity:1; 
stroke-linecap:round; stroke-linejoin:round;">
</g>
<g style="fill:#840000; fill-opacity:0.0; 
stroke:#840000; stroke-width:100; stroke-opacity:1; 
stroke-linecap:round; stroke-linejoin:round;">
<rect x="45100" y="23500" width="800" height="2000" rx="0" />
</g>
<g style="fill:#840000; fill-opacity:0.0; 
stroke:#840000; stroke-width:60; stroke-opacity:1; 
stroke-linecap:round; stroke-linejoin:round;">
<path d="M45500 23500
L45500 23000
" />
<path d="M45500 25500
L45500 26000
" />
</g>
<g style="fill:#008484; fill-opacity:0.0; 
stroke:#008484; stroke-width:60; stroke-opacity:1; 
stroke-linecap:round; stroke-linejoin:round;">
<text x="47040" y="24310"
textLength="1680" font-size="660" lengthAdjust="spacingAndGlyphs"
text-anchor="middle" opacity="0">load</text>
<path d="M46420 24280
L46370 24260
L46340 24210
L46340 23780
" />
<path d="M46680 24280
L46630 24260
L46610 24230
L46580 24190
L46580 24040
L46610 24000
L46630 23970
L46680 23950
L46750 23950
L46800 23970
L46820 24000
L46840 24040
L46840 24190
L46820 24230
L46800 24260
L46750 24280
L46680 24280
" />
<path d="M47270 24280
L47270 24020
L47250 23970
L47200 23950
L47110 23950
L47060 23970
" />
<path d="M47270 24260
L47230 24280
L47110 24280
L47060 24260
L47040 24210
L47040 24160
L47060 24110
L47110 24090
L47230 24090
L47270 24070
" />
<path d="M47730 24280
L47730 23780
" />
<path d="M47730 24260
L47680 24280
L47580 24280
L47540 24260
L47510 24230
L47490 24190
L47490 24040
L47510 24000
L47540 23970
L47580 23950
L47680 23950
L47730 23970
" />
<text x="46480" y="25220"
textLength="560" font-size="660" lengthAdjust="spacingAndGlyphs"
text-anchor="middle" opacity="0">R</text>
<path d="M46630 25190
L46460 24950
" />
<path d="M46340 25190
L46340 24690
L46530 24690
L46580 24720
L46610 24740
L46630 24790
L46630 24860
L46610 24910
L46580 24930
L46530 24950
L46340 24950
" />
</g>
</g>
<g style="fill:#008484; fill-opacity:0.0; 
stroke:#008484; stroke-width:60; stroke-opacity:1; 
stroke-linecap:round; stroke-linejoin:round;">
</g>
<g style="fill:#008400; fill-opacity:0.0; 
stroke:#008400; stroke-width:60; stroke-opacity:1; 
stroke-linecap:round; stroke-linejoin:round;">
<path d="M41500 18500
L41500 17500
" />
<path d="M41500 17500
L45500 17500
" />
<path d="M45500 17500
L45500 23000
" />
<path d="M41500 30500
L41500 31500
" />
<path d="M41500 31500
L45500 31500
" />
<path d="M45500 31500
L45500 26000
" />
<path d="M36000 30500
L36000 31500
" />
<path d="M36000 31500
L41500 31500
" />
<path d="M36000 18500
L36000 17500
" />
<path d="M36000 17500
L41500 17500
" />
<path d="M33500 27000
L41500 27000
" />
<path d="M28500 22500
L28500 22000
" />
<path d="M28500 22000
L31000 22000
" />
<path d="M31000 22000
L31000 23000
" />
<path d="M28500 26500
L28500 27000
" />
<path d="M28500 27000
L31000 27000
" />
<path d="M31000 27000
L31000 26000
" />
<path d="M36000 21500
L36000 22000
" />
<path d="M33500 22000
L36000 22000
" />
<path d="M33500 22000
L33500 23000
" />
<path d="M36000 22000
L36000 27500
" />
<path d="M41500 27000
L41500 27500
" />
<path d="M41500 21500
L41500 27000
" />
<path d="M33500 26000
L33500 27000
" />
</g>
<g style="fill:#008400; fill-opacity:0.0; 
stroke:#008400; stroke-width:0; stroke-opacity:1; 
stroke-linecap:round; stroke-linejoin:round;">
</g>
<g style="fill:#008400; fill-opacity:1.0; 
stroke:#008400; stroke-width:100; stroke-opacity:1; 
stroke-linecap:round; stroke-linejoin:round;">
<circle cx="41500" cy="31500" r="200" /> 
</g>
<g style="fill:#008400; fill-opacity:1.0; 
stroke:#008400; stroke-width:0; stroke-opacity:1; 
stroke-linecap:round; stroke-linejoin:round;">
</g>
<g style="fill:#008400; fill-opacity:1.0; 
stroke:#008400; stroke-width:100; stroke-opacity:1; 
stroke-linecap:round; stroke-linejoin:round;">
<circle cx="41500" cy="17500" r="200" /> 
</g>
<g style="fill:#008400; fill-opacity:1.0; 
stroke:#008400; stroke-width:0; stroke-opacity:1; 
stroke-linecap:round; stroke-linejoin:round;">
</g>
<g style="fill:#008400; fill-opacity:1.0; 
stroke:#008400; stroke-width:100; stroke-opacity:1; 
stroke-linecap:round; stroke-linejoin:round;">
<circle cx="36000" cy="22000" r="200" /> 
</g>
<g style="fill:#008400; fill-opacity:1.0; 
stroke:#008400; stroke-width:0; stroke-opacity:1; 
stroke-linecap:round; stroke-linejoin:round;">
</g>
<g style="fill:#008400; fill-opacity:1.0; 
stroke:#008400; stroke-width:100; stroke-opacity:1; 
stroke-linecap:round; stroke-linejoin:round;">
<circle cx="41500" cy="27000" r="200" /> 
</g> 
</svg>
